<svg width="30" height="30" viewBox="0 0 30 30" fill="none" xmlns="http://www.w3.org/2000/svg">
<path d="M5 7C6.10457 7 7 6.10457 7 5C7 3.89543 6.10457 3 5 3C3.89543 3 3 3.89543 3 5C3 6.10457 3.89543 7 5 7Z" fill="black"/>
<path d="M5 27C6.10457 27 7 26.1046 7 25C7 23.8954 6.10457 23 5 23C3.89543 23 3 23.8954 3 25C3 26.1046 3.89543 27 5 27Z" fill="black"/>
<path d="M15 7C16.1046 7 17 6.10457 17 5C17 3.89543 16.1046 3 15 3C13.8954 3 13 3.89543 13 5C13 6.10457 13.8954 7 15 7Z" fill="black"/>
<path d="M15 27C16.1046 27 17 26.1046 17 25C17 23.8954 16.1046 23 15 23C13.8954 23 13 23.8954 13 25C13 26.1046 13.8954 27 15 27Z" fill="black"/>
<path d="M25 7C26.1046 7 27 6.10457 27 5C27 3.89543 26.1046 3 25 3C23.8954 3 23 3.89543 23 5C23 6.10457 23.8954 7 25 7Z" fill="black"/>
<path d="M25 27C26.1046 27 27 26.1046 27 25C27 23.8954 26.1046 23 25 23C23.8954 23 23 23.8954 23 25C23 26.1046 23.8954 27 25 27Z" fill="black"/>
</svg>
