<svg width="26" height="26" viewBox="0 0 26 26" fill="none" xmlns="http://www.w3.org/2000/svg">
<g clip-path="url(#clip0)">
<path d="M2 4C3.10457 4 4 3.10457 4 2C4 0.895431 3.10457 0 2 0C0.895431 0 0 0.895431 0 2C0 3.10457 0.895431 4 2 4Z" fill="black"/>
<path d="M2 26C3.10457 26 4 25.1046 4 24C4 22.8954 3.10457 22 2 22C0.895431 22 0 22.8954 0 24C0 25.1046 0.895431 26 2 26Z" fill="black"/>
<path d="M13 4C14.1046 4 15 3.10457 15 2C15 0.895431 14.1046 0 13 0C11.8954 0 11 0.895431 11 2C11 3.10457 11.8954 4 13 4Z" fill="black"/>
<path d="M13 26C14.1046 26 15 25.1046 15 24C15 22.8954 14.1046 22 13 22C11.8954 22 11 22.8954 11 24C11 25.1046 11.8954 26 13 26Z" fill="black"/>
<path d="M24 4C25.1046 4 26 3.10457 26 2C26 0.895431 25.1046 0 24 0C22.8954 0 22 0.895431 22 2C22 3.10457 22.8954 4 24 4Z" fill="black"/>
<path d="M24 26C25.1046 26 26 25.1046 26 24C26 22.8954 25.1046 22 24 22C22.8954 22 22 22.8954 22 24C22 25.1046 22.8954 26 24 26Z" fill="black"/>
</g>
<defs>
<clipPath id="clip0">
<rect width="26" height="26" fill="white"/>
</clipPath>
</defs>
</svg>
