<svg width="25" height="25" viewBox="0 0 25 25" fill="none" xmlns="http://www.w3.org/2000/svg">
<path d="M2.5 5C3.88071 5 5 3.88071 5 2.5C5 1.11929 3.88071 0 2.5 0C1.11929 0 0 1.11929 0 2.5C0 3.88071 1.11929 5 2.5 5Z" fill="black"/>
<path d="M2.5 25C3.88071 25 5 23.8807 5 22.5C5 21.1193 3.88071 20 2.5 20C1.11929 20 0 21.1193 0 22.5C0 23.8807 1.11929 25 2.5 25Z" fill="black"/>
<path d="M2.5 15C3.88071 15 5 13.8807 5 12.5C5 11.1193 3.88071 10 2.5 10C1.11929 10 0 11.1193 0 12.5C0 13.8807 1.11929 15 2.5 15Z" fill="black"/>
<path d="M12.5 5C13.8807 5 15 3.88071 15 2.5C15 1.11929 13.8807 0 12.5 0C11.1193 0 10 1.11929 10 2.5C10 3.88071 11.1193 5 12.5 5Z" fill="black"/>
<path d="M12.5 25C13.8807 25 15 23.8807 15 22.5C15 21.1193 13.8807 20 12.5 20C11.1193 20 10 21.1193 10 22.5C10 23.8807 11.1193 25 12.5 25Z" fill="black"/>
<path d="M22.5 5C23.8807 5 25 3.88071 25 2.5C25 1.11929 23.8807 0 22.5 0C21.1193 0 20 1.11929 20 2.5C20 3.88071 21.1193 5 22.5 5Z" fill="black"/>
<path d="M22.5 25C23.8807 25 25 23.8807 25 22.5C25 21.1193 23.8807 20 22.5 20C21.1193 20 20 21.1193 20 22.5C20 23.8807 21.1193 25 22.5 25Z" fill="black"/>
<path d="M22.5 15C23.8807 15 25 13.8807 25 12.5C25 11.1193 23.8807 10 22.5 10C21.1193 10 20 11.1193 20 12.5C20 13.8807 21.1193 15 22.5 15Z" fill="black"/>
</svg>
